<svg width="91" height="91" viewBox="0 0 91 91" fill="none" xmlns="http://www.w3.org/2000/svg">
<path d="M2.32327 14.8049L14.8054 2.32277C17.9027 -0.77433 22.942 -0.774507 26.0393 2.32277C29.1366 5.42004 29.1364 10.4594 26.0393 13.5567L25.4151 14.1809L31.6561 20.4219L34.7767 17.3013C37.874 14.2042 42.9133 14.204 46.0106 17.3013C48.4514 19.7422 48.9672 23.3887 47.5608 26.3407L74.7193 53.4993C77.1601 55.9401 77.6759 59.5867 76.2695 62.5387L79.712 65.9812C82.1209 68.3901 82.1209 72.3098 79.712 74.7186L79.0879 75.3428L89.6048 85.8597C90.6388 86.8937 90.6388 88.5702 89.6048 89.6042C88.5707 90.6383 86.8942 90.6383 85.8602 89.6042L75.3435 79.0875L74.7194 79.7117C72.3106 82.1206 68.3909 82.1206 65.9821 79.7117L62.5395 76.2692C59.5874 77.6755 55.9409 77.1597 53.5 74.7189L26.3415 47.5605C23.3894 48.9669 19.7429 48.4511 17.3021 46.0103C14.2049 42.913 14.2049 37.8736 17.3021 34.7764L20.4227 31.6558L14.1817 25.4148L13.5575 26.039C10.4603 29.1363 5.42089 29.1363 2.32362 26.039C-0.773834 22.9415 -0.773834 17.9022 2.32327 14.8049ZM69.7265 75.967C70.0705 76.311 70.6306 76.311 70.9747 75.967L75.9675 70.9742C76.3115 70.6301 76.3115 70.07 75.9675 69.726L72.8469 66.6054L66.6059 72.8464L69.7265 75.967ZM57.2444 70.9742C58.2768 72.0067 59.9565 72.0067 60.9889 70.9742L70.9747 60.9886C72.0072 59.9561 72.0072 58.2765 70.9747 57.244L68.6525 54.9219L65.5319 58.0423C64.4979 59.0763 62.8214 59.0763 61.7874 58.0423C60.7533 57.0082 60.7533 55.3318 61.7874 54.2977L64.9079 51.1771L61.1634 47.4325L58.0428 50.5531C57.0087 51.5872 55.3323 51.5872 54.2982 50.5531C53.2641 49.519 53.2641 47.8426 54.2982 46.8085L57.4188 43.688L53.6742 39.9434L39.9439 53.6737L57.2444 70.9742ZM36.1993 49.9289L49.9296 36.1986L44.1384 30.4074L30.4081 44.1377L36.1993 49.9289ZM21.0464 42.2654C22.0788 43.2978 23.7585 43.2978 24.7909 42.2654L42.2659 24.7904C43.2982 23.758 43.2983 22.0782 42.2659 21.0459C41.2334 20.0134 39.5536 20.0134 38.5213 21.0459L21.0464 38.5208C20.0139 39.5532 20.0139 41.233 21.0464 42.2654ZM24.1669 27.911L27.9115 24.1664L21.6705 17.9255L17.926 21.67L24.1669 27.911ZM6.06802 22.2941C7.1005 23.3265 8.78012 23.3265 9.81261 22.2941L22.2947 9.81194C23.3272 8.77945 23.3272 7.09983 22.2947 6.06735C21.2622 5.03487 19.5825 5.03504 18.5501 6.06735L6.06802 18.5495C5.03554 19.582 5.03554 21.2618 6.06802 22.2941Z" fill="#1AA7EE"/>
</svg>
